<svg width="79" height="15" viewBox="0 0 79 15" fill="none" xmlns="http://www.w3.org/2000/svg">
<path d="M5.27099 6.39326C5.23826 6.06668 5.09787 5.813 4.84981 5.63219C4.60172 5.45135 4.26505 5.36093 3.83978 5.36093C3.55081 5.36093 3.30681 5.40143 3.10781 5.4824C2.9088 5.56067 2.75613 5.66996 2.64981 5.8103C2.54622 5.95064 2.49442 6.10988 2.49442 6.28799C2.48897 6.43643 2.52032 6.56597 2.58847 6.67664C2.65936 6.78728 2.75613 6.8831 2.87881 6.96407C3.00148 7.04234 3.14323 7.11116 3.30408 7.17053C3.46493 7.2272 3.63666 7.2758 3.81932 7.31627L4.57172 7.49438C4.93702 7.57535 5.27235 7.68332 5.57766 7.81826C5.88299 7.9532 6.14744 8.11919 6.37096 8.3162C6.5945 8.51321 6.76763 8.74532 6.89029 9.0125C7.01572 9.27968 7.07978 9.58601 7.0825 9.93146C7.07978 10.4388 6.9489 10.8788 6.68993 11.2512C6.43369 11.621 6.06293 11.9084 5.57766 12.1135C5.09514 12.3159 4.51311 12.4171 3.8316 12.4171C3.1555 12.4171 2.56667 12.3146 2.06506 12.1095C1.56618 11.9043 1.17634 11.6007 0.895553 11.1986C0.617487 10.7937 0.471638 10.2931 0.458008 9.69668H2.17138C2.19046 9.97466 2.27088 10.2067 2.41264 10.393C2.55713 10.5765 2.74932 10.7155 2.98922 10.8099C3.23184 10.9017 3.50581 10.9476 3.81114 10.9476C4.11102 10.9476 4.37135 10.9044 4.59217 10.818C4.81572 10.7317 4.98884 10.6116 5.11151 10.4577C5.23417 10.3039 5.2955 10.1271 5.2955 9.92741C5.2955 9.7412 5.23963 9.58466 5.12787 9.45782C5.01881 9.33098 4.85799 9.22301 4.64532 9.13394C4.43541 9.0449 4.17781 8.96393 3.87247 8.89106L2.96059 8.66435C2.25453 8.49431 1.69703 8.22848 1.28811 7.86683C0.879196 7.50518 0.676099 7.01804 0.678826 6.40541C0.676099 5.90342 0.811041 5.46485 1.08365 5.0897C1.35899 4.71455 1.73656 4.42175 2.21636 4.21124C2.69616 4.0007 3.24138 3.89546 3.85202 3.89546C4.4736 3.89546 5.01608 4.0007 5.47953 4.21124C5.94569 4.42175 6.30826 4.71455 6.56726 5.0897C6.82623 5.46485 6.95981 5.89937 6.96799 6.39326H5.27099ZM9.98275 8.70482V12.2997H8.24075V4.0088H9.93369V7.17863H10.0073C10.149 6.81158 10.3781 6.52415 10.6943 6.31634C11.0105 6.10583 11.4071 6.00056 11.8842 6.00056C12.3204 6.00056 12.7007 6.09503 13.0251 6.28394C13.3522 6.47018 13.6058 6.73871 13.7857 7.08956C13.9684 7.43771 14.0583 7.85468 14.0556 8.3405V12.2997H12.3136V8.64815C12.3163 8.26493 12.2182 7.9667 12.0192 7.75349C11.8229 7.54028 11.5475 7.43366 11.1931 7.43366C10.956 7.43366 10.7461 7.48361 10.5634 7.58345C10.3835 7.68332 10.2417 7.82906 10.1381 8.02067C10.0373 8.20958 9.98547 8.43764 9.98275 8.70482ZM15.4265 12.2997V6.08153H17.1685V12.2997H15.4265ZM16.3016 5.27999C16.0426 5.27999 15.8204 5.19497 15.635 5.02493C15.4524 4.85222 15.3611 4.64573 15.3611 4.40555C15.3611 4.16804 15.4524 3.96428 15.635 3.79424C15.8204 3.62153 16.0426 3.53516 16.3016 3.53516C16.5605 3.53516 16.7814 3.62153 16.964 3.79424C17.1494 3.96428 17.2421 4.16804 17.2421 4.40555C17.2421 4.64573 17.1494 4.85222 16.964 5.02493C16.7814 5.19497 16.5605 5.27999 16.3016 5.27999ZM21.4264 12.4212C20.7803 12.4212 20.2241 12.2916 19.758 12.0325C19.2945 11.7707 18.9374 11.401 18.6866 10.9233C18.4358 10.4429 18.3104 9.87479 18.3104 9.21896C18.3104 8.57933 18.4358 8.01797 18.6866 7.53488C18.9374 7.05179 19.2904 6.67529 19.7457 6.40541C20.2037 6.13553 20.7407 6.00056 21.3568 6.00056C21.7712 6.00056 22.1569 6.06668 22.5141 6.19895C22.8739 6.32849 23.1874 6.52415 23.4546 6.78593C23.7245 7.04774 23.9344 7.37699 24.0843 7.77374C24.2343 8.16776 24.3092 8.62928 24.3092 9.15824V9.63188H19.0055V8.56313H22.6694C22.6694 8.31485 22.6149 8.09489 22.5059 7.90328C22.3968 7.71164 22.2455 7.56185 22.052 7.45391C21.8611 7.34327 21.639 7.28792 21.3854 7.28792C21.121 7.28792 20.8866 7.34864 20.6821 7.47011C20.4804 7.58885 20.3223 7.74944 20.2077 7.95185C20.0933 8.15156 20.0347 8.37422 20.0319 8.61983V9.63593C20.0319 9.94361 20.0892 10.2094 20.2037 10.4334C20.3209 10.6575 20.4858 10.8302 20.6985 10.9516C20.9111 11.0731 21.1633 11.1338 21.455 11.1338C21.6485 11.1338 21.8257 11.1068 21.9866 11.0529C22.1474 10.9989 22.2851 10.9179 22.3996 10.8099C22.5141 10.702 22.6013 10.5697 22.6613 10.4132L24.2724 10.5185C24.1906 10.9017 24.023 11.2364 23.7694 11.5224C23.5186 11.8058 23.1942 12.0271 22.7962 12.1864C22.4009 12.3429 21.9443 12.4212 21.4264 12.4212ZM27.188 4.0088V12.2997H25.446V4.0088H27.188ZM30.8979 12.4009C30.4209 12.4009 29.9887 12.2795 29.6017 12.0366C29.2173 11.791 28.9119 11.4307 28.6857 10.9557C28.4621 10.478 28.3504 9.89234 28.3504 9.19874C28.3504 8.48624 28.4662 7.89383 28.6979 7.42151C28.9297 6.94652 29.2377 6.59162 29.6221 6.35681C30.0092 6.11933 30.4331 6.00056 30.894 6.00056C31.2455 6.00056 31.5385 6.05996 31.7731 6.1787C32.0103 6.29474 32.2009 6.44048 32.3455 6.61592C32.4927 6.78863 32.6046 6.95867 32.6809 7.12601H32.734V4.0088H34.4718V12.2997H32.7543V11.3038H32.6809C32.5991 11.4766 32.4831 11.6479 32.3334 11.818C32.1861 11.9853 31.994 12.1243 31.7567 12.2349C31.5221 12.3456 31.2361 12.4009 30.8979 12.4009ZM31.45 11.0286C31.7306 11.0286 31.9679 10.953 32.1615 10.8018C32.3579 10.648 32.5076 10.4334 32.6112 10.1582C32.7176 9.88289 32.7706 9.56036 32.7706 9.19064C32.7706 8.82089 32.7191 8.49971 32.6155 8.22713C32.5118 7.95455 32.3618 7.74404 32.1655 7.5956C31.9694 7.44716 31.7306 7.37294 31.45 7.37294C31.1637 7.37294 30.9224 7.44986 30.7261 7.6037C30.53 7.75754 30.3812 7.97075 30.2804 8.24333C30.1796 8.51591 30.1291 8.83169 30.1291 9.19064C30.1291 9.55229 30.1796 9.87209 30.2804 10.1501C30.384 10.4253 30.5327 10.6413 30.7261 10.7978C30.9224 10.9516 31.1637 11.0286 31.45 11.0286Z" fill="#023047"/>
<path d="M58.604 6.39331C58.5713 6.06673 58.431 5.81305 58.1828 5.63224C57.935 5.4514 57.5983 5.36098 57.1728 5.36098C56.884 5.36098 56.6398 5.40148 56.441 5.48245C56.2419 5.56072 56.0892 5.67001 55.9828 5.81035C55.8792 5.95069 55.8277 6.10993 55.8277 6.28804C55.8222 6.43648 55.8534 6.56602 55.9216 6.67669C55.9925 6.78733 56.0892 6.88315 56.2119 6.96412C56.3347 7.04239 56.4765 7.11121 56.6371 7.17058C56.798 7.22725 56.9698 7.27585 57.1525 7.31632L57.905 7.49443C58.2701 7.5754 58.6056 7.68337 58.9107 7.81831C59.2162 7.95325 59.4804 8.11924 59.704 8.31625C59.9277 8.51326 60.1007 8.74537 60.2234 9.01255C60.3489 9.27973 60.4128 9.58606 60.4156 9.93151C60.4128 10.4389 60.2819 10.8788 60.0231 11.2513C59.7668 11.621 59.3962 11.9084 58.9107 12.1136C58.4283 12.316 57.8462 12.4172 57.1647 12.4172C56.4886 12.4172 55.8998 12.3146 55.3983 12.1095C54.8992 11.9044 54.5095 11.6008 54.2286 11.1986C53.9507 10.7938 53.8047 10.2932 53.791 9.69673H55.5043C55.5234 9.97471 55.604 10.2068 55.7459 10.393C55.8901 10.5765 56.0825 10.7155 56.3222 10.81C56.565 10.9018 56.8389 10.9476 57.1443 10.9476C57.444 10.9476 57.7044 10.9045 57.9253 10.8181C58.1489 10.7317 58.3219 10.6116 58.4447 10.4578C58.5674 10.304 58.6286 10.1272 58.6286 9.92746C58.6286 9.74125 58.5728 9.58471 58.461 9.45787C58.3519 9.33103 58.191 9.22306 57.9786 9.13399C57.7686 9.04495 57.511 8.96398 57.2056 8.89111L56.2937 8.6644C55.5877 8.49436 55.0301 8.22853 54.6213 7.86688C54.2122 7.50523 54.0092 7.01809 54.0119 6.40546C54.0092 5.90347 54.144 5.4649 54.4168 5.08975C54.6922 4.7146 55.0698 4.4218 55.5495 4.21129C56.0292 4.00075 56.5743 3.89551 57.1853 3.89551C57.8068 3.89551 58.3492 4.00075 58.8125 4.21129C59.2789 4.4218 59.6413 4.7146 59.9004 5.08975C60.1595 5.4649 60.2928 5.89942 60.301 6.39331H58.604ZM65.6016 9.65218V6.08158H67.3437V12.2998H65.6713V11.1703H65.6059C65.464 11.5346 65.2283 11.8275 64.8983 12.0488C64.5713 12.2701 64.1719 12.3807 63.7001 12.3807C63.2804 12.3807 62.911 12.2863 62.5922 12.0974C62.2731 11.9084 62.0237 11.6399 61.8437 11.2917C61.6665 10.9436 61.5765 10.5266 61.5737 10.0408V6.08158H63.3159V9.73315C63.3186 10.1002 63.418 10.3903 63.6143 10.6035C63.8107 10.8167 64.0737 10.9233 64.4034 10.9233C64.6134 10.9233 64.8098 10.8761 64.9925 10.7816C65.175 10.6845 65.3222 10.5415 65.434 10.3525C65.5486 10.1636 65.6043 9.93016 65.6016 9.65218ZM68.7371 12.2998V6.08158H70.4259V7.16653H70.4913C70.6059 6.78058 70.798 6.48913 71.068 6.29209C71.3377 6.09238 71.6486 5.99254 72.0004 5.99254C72.0874 5.99254 72.1816 5.99791 72.2825 6.00871C72.3834 6.01951 72.4719 6.03436 72.5483 6.05326V7.5835C72.4665 7.55923 72.3534 7.53763 72.2089 7.51873C72.0643 7.49983 71.9322 7.49041 71.8122 7.49041C71.5559 7.49041 71.3268 7.54573 71.1253 7.65637C70.9262 7.76434 70.768 7.91548 70.6507 8.10979C70.5365 8.3041 70.4792 8.52811 70.4792 8.78179V12.2998H68.7371ZM76.0189 12.4212C75.3728 12.4212 74.8168 12.2917 74.3504 12.0326C73.8871 11.7708 73.5301 11.4011 73.2792 10.9233C73.0283 10.4429 72.9028 9.87484 72.9028 9.21901C72.9028 8.57938 73.0283 8.01802 73.2792 7.53493C73.5301 7.05184 73.8831 6.67534 74.3383 6.40546C74.7962 6.13558 75.3334 6.00061 75.9495 6.00061C76.3637 6.00061 76.7495 6.06673 77.1068 6.199C77.4665 6.32854 77.7801 6.5242 78.0471 6.78598C78.3171 7.04779 78.5271 7.37704 78.6768 7.77379C78.8268 8.16781 78.9019 8.62933 78.9019 9.15829V9.63193H73.598V8.56318H77.2619C77.2619 8.3149 77.2074 8.09494 77.0986 7.90333C76.9895 7.71169 76.838 7.5619 76.6446 7.45396C76.4537 7.34332 76.2316 7.28797 75.978 7.28797C75.7137 7.28797 75.4792 7.34869 75.2746 7.47016C75.0728 7.5889 74.915 7.74949 74.8004 7.9519C74.6859 8.15161 74.6274 8.37427 74.6246 8.61988V9.63598C74.6246 9.94366 74.6816 10.2095 74.7962 10.4335C74.9134 10.6575 75.0783 10.8302 75.291 10.9517C75.5037 11.0731 75.7559 11.1338 76.0477 11.1338C76.241 11.1338 76.4183 11.1069 76.5792 11.0529C76.7401 10.9989 76.8777 10.9179 76.9922 10.81C77.1068 10.702 77.1937 10.5698 77.2537 10.4132L78.865 10.5185C78.7831 10.9018 78.6156 11.2364 78.3619 11.5225C78.1113 11.8059 77.7868 12.0272 77.3889 12.1864C76.9934 12.3429 76.5368 12.4212 76.0189 12.4212Z" fill="#023047"/>
<mask id="mask0_280_46" style="mask-type:luminance" maskUnits="userSpaceOnUse" x="35" y="-2" width="18" height="18">
<path d="M50.9092 13.4996V0.599609H37.8789V13.4996H50.9092Z" fill="white" stroke="white" stroke-width="4"/>
</mask>
<g mask="url(#mask0_280_46)">
<path d="M44.3945 0.550781L38.9424 2.79183V5.51613C38.9424 9.04179 41.0972 12.2169 44.3945 13.5492C47.6918 12.2169 49.8466 9.04179 49.8466 5.51613V2.79183L44.3945 0.550781Z" stroke="#FB8500" stroke-miterlimit="10" stroke-linecap="round" stroke-linejoin="round"/>
<path d="M42.2246 6.61208L43.7795 8.15135L46.564 5.39453" stroke="#FB8500" stroke-miterlimit="10" stroke-linecap="round" stroke-linejoin="round"/>
</g>
</svg>
