<svg width="90" height="90" viewBox="0 0 90 90" fill="none" xmlns="http://www.w3.org/2000/svg">
<circle cx="45" cy="45" r="45" fill="#BBC5F7"/>
<mask id="mask0_279_7" style="mask-type:alpha" maskUnits="userSpaceOnUse" x="0" y="0" width="90" height="90">
<circle cx="45" cy="45" r="45" fill="#D9D9D9"/>
</mask>
<g mask="url(#mask0_279_7)">
<path d="M16 90C16 82.2203 19.0553 74.7593 24.4939 69.2582C29.9325 63.7571 37.3087 60.6667 45 60.6667C52.6913 60.6667 60.0675 63.7571 65.5061 69.2582C70.9447 74.7593 74 82.2203 74 90H16ZM45 57C32.9831 57 23.25 47.155 23.25 35C23.25 22.845 32.9831 13 45 13C57.0169 13 66.75 22.845 66.75 35C66.75 47.155 57.0169 57 45 57Z" fill="#6976DF"/>
</g>
</svg>
