<?xml version="1.0" encoding="UTF-8"?>
<svg id="Capa_1" data-name="Capa 1" xmlns="http://www.w3.org/2000/svg" xmlns:xlink="http://www.w3.org/1999/xlink" viewBox="0 0 247 246">
  <defs>
    <style>
      .cls-1, .cls-2 {
        fill: none;
      }

      .cls-3 {
        fill: #6976df;
      }

      .cls-4 {
        fill: #fff;
      }

      .cls-5 {
        fill: url(#Degradado_sin_nombre);
      }

      .cls-2 {
        stroke: #fff;
        stroke-dasharray: 6 6;
      }

      .cls-6 {
        fill: url(#Degradado_sin_nombre_4);
      }

      .cls-7 {
        fill: url(#Degradado_sin_nombre_3);
      }

      .cls-8 {
        fill: url(#Degradado_sin_nombre_2);
      }
    </style>
    <linearGradient id="Degradado_sin_nombre" data-name="Degradado sin nombre" x1="183.95" y1="-2551.32" x2="183.95" y2="-2796.58" gradientTransform="translate(0 -2551.32) scale(1 -1)" gradientUnits="userSpaceOnUse">
      <stop offset=".64" stop-color="#6976df"/>
      <stop offset="1" stop-color="#5a65dc"/>
    </linearGradient>
    <linearGradient id="Degradado_sin_nombre_2" data-name="Degradado sin nombre 2" x1="1" y1="-2612.63" x2="246.27" y2="-2612.63" gradientTransform="translate(0 -2551.32) scale(1 -1)" gradientUnits="userSpaceOnUse">
      <stop offset=".64" stop-color="#6976df"/>
      <stop offset="1" stop-color="#5a65dc"/>
    </linearGradient>
    <linearGradient id="Degradado_sin_nombre_3" data-name="Degradado sin nombre 3" x1="246.27" y1="-2735.27" x2="1" y2="-2735.27" gradientTransform="translate(0 -2551.32) scale(1 -1)" gradientUnits="userSpaceOnUse">
      <stop offset=".64" stop-color="#6976df"/>
      <stop offset="1" stop-color="#5a65dc"/>
    </linearGradient>
    <linearGradient id="Degradado_sin_nombre_4" data-name="Degradado sin nombre 4" x1="62.32" y1="-2796.58" x2="62.32" y2="-2551.32" gradientTransform="translate(0 -2551.32) scale(1 -1)" gradientUnits="userSpaceOnUse">
      <stop offset=".58" stop-color="#5a65dc"/>
      <stop offset=".77" stop-color="#6976df"/>
      <stop offset=".83" stop-color="#6976df"/>
    </linearGradient>
  </defs>
  <circle class="cls-3" cx="123.63" cy="122.63" r="122.63"/>
  <path class="cls-5" d="M245.27,122.63c0,16.1-3.17,32.05-9.34,46.93-6.16,14.88-15.2,28.4-26.58,39.79-11.39,11.39-24.91,20.42-39.79,26.58-14.88,6.16-30.82,9.34-46.93,9.34v-122.63h122.63Z"/>
  <path class="cls-8" d="M123.63,0c16.1,0,32.05,3.17,46.93,9.33,14.88,6.16,28.4,15.2,39.79,26.58,11.39,11.39,20.42,24.91,26.58,39.78,6.16,14.88,9.34,30.83,9.34,46.93h-122.63V0Z"/>
  <path class="cls-7" d="M123.63,245.27c-16.11,0-32.05-3.17-46.93-9.34-14.88-6.16-28.4-15.2-39.78-26.58-11.39-11.39-20.42-24.91-26.58-39.79-6.16-14.88-9.33-30.82-9.33-46.93h122.63v122.63Z"/>
  <path class="cls-6" d="M1,122.63c0-16.1,3.17-32.05,9.33-46.93,6.16-14.88,15.2-28.4,26.58-39.78,11.39-11.39,24.91-20.42,39.78-26.58C91.58,3.17,107.53,0,123.63,0v122.63H1Z"/>
  <g>
    <ellipse class="cls-1" cx="123.5" cy="123" rx="81.93" ry="81.9" transform="translate(-48.05 92.14) rotate(-34.69)"/>
    <path class="cls-4" d="M44.78,100.24l-1.88,6.79-29.68-8.2,3.41-12.35,6.06,1.68-1.54,5.56,6.15,1.7,1.42-5.13,6.06,1.67-1.42,5.13,11.41,3.15Z"/>
    <path class="cls-4" d="M29.35,72.88l-2.39,5.25,5.41,2.46,2.12-4.65,5.21,2.37-2.12,4.65,5.97,2.72,2.39-5.25,5.73,2.61-5.31,11.66-28.03-12.76,5.31-11.66,5.73,2.61Z"/>
    <path class="cls-4" d="M54.01,64.45c5.2,3.62,6.64,6.18,4.47,9.28-1.51,2.17-3.66,3.03-7.53,1.41l-.25.36,4.5,2.17-3.6,5.17-25.28-17.6,4.71-6.75c3.4-4.88,6.73-5.35,11.6-1.95l11.37,7.92ZM40.67,63.2c-2.92-2.04-3.79-2.1-4.47-1.13l-.68.97,11.48,8c3.14,2.19,4.16,2.2,4.61,1.55.6-.87.11-1.7-2.82-3.73l-8.12-5.66Z"/>
    <path class="cls-4" d="M53.18,42.83l-4.1,4.06,4.18,4.22,3.63-3.59,4.02,4.06-3.63,3.59,4.61,4.66,4.1-4.06,4.43,4.47-9.1,9.01-21.67-21.88,9.1-9.01,4.43,4.47Z"/>
    <path class="cls-4" d="M80.77,45.78c2.52,3.77,3.61,4.84,3.61,4.84l-5.86,3.91s-.6-.34-1.84-2.21l-3.64-5.45c-1.96-2.93-3.07-3.08-4.27-2.28l-.18.12,7.6,11.38-5.85,3.91-17.11-25.61,7.21-4.82c4.79-3.2,7.49-3.21,10.38,1.11,2.81,4.21,2.59,6.73-1.58,9.52l.24.37c3.95-2.64,6.25-2.38,9.52,2.53l1.78,2.67ZM66.44,38.58c.99-.66.99-1.45.08-2.81-.81-1.21-1.61-1.62-2.6-.96l-1.35.91,2.52,3.77,1.35-.91Z"/>
    <path class="cls-4" d="M71.45,22.94l6.3-3.04,13.38,27.75-6.3,3.04-13.38-27.75Z"/>
    <path class="cls-4" d="M104.84,34.66c1.62,5.26.29,8.71-5.38,10.46-5.72,1.77-8.72-.34-10.34-5.6l-4.39-14.21c-1.62-5.26-.34-8.69,5.38-10.46,5.68-1.75,8.68.36,10.3,5.61l.95,3.07-6.52,2.02-.43-1.39c-.92-2.99-1.48-3.6-2.45-3.3s-1.12,1.13-.2,4.12l3.35,10.85c.92,2.98,1.52,3.58,2.49,3.28s1.12-1.13.2-4.12c-1.34-4.33-2.06-5.63-2.06-5.63l6.52-2.01s.43.51,1.1,2.65l1.48,4.65Z"/>
    <path class="cls-4" d="M121.21,17.94l1.48,14.8c.54,5.47-1.44,8.59-7.36,9.18-5.96.59-8.48-2.07-9.03-7.54l-1.48-14.8c-.55-5.47,1.4-8.58,7.36-9.18,5.91-.59,8.48,2.07,9.02,7.54ZM114.59,20.37c-.31-3.11-.87-3.8-1.79-3.71-.96.1-1.33.88-1.02,3.99l1.13,11.29c.31,3.11.82,3.81,1.79,3.71.92-.09,1.33-.88,1.02-3.99l-1.13-11.29Z"/>
    <path class="cls-4" d="M140.39,36.87c.95.19,1.63-.53,2.05-2.69l.09-.43c.59-2.98-1.19-4.45-3.22-6.42-2.21-2.19-4.41-4.5-3.49-9.12l.09-.43c.83-4.19,3.66-6.95,9.53-5.79,5.83,1.15,7.51,4.44,6.45,9.84l-.62,3.15-6.48-1.28.28-1.42c.6-3.07.14-3.92-1.02-4.15-.82-.16-1.33.37-1.52,1.36l-.08.43c-.4,2.03,1.49,3.84,3.47,5.84,2.28,2.33,4.3,4.57,3.3,9.67l-.17.86c-1.06,5.4-3.9,7.93-9.72,6.78-5.87-1.16-7.49-4.57-6.42-9.97l.38-1.9c.44-2.25.86-2.75.86-2.75l6.48,1.28s-.5.93-1.03,3.61c-.43,2.16-.16,3.33.83,3.53Z"/>
    <path class="cls-4" d="M158.02,41.23l-2.29-.93-3.01,6.14-6.53-2.64,15.64-26.9,8.04,3.25-7.48,30.2-6.53-2.64,2.15-6.49ZM159.8,35.78l2.96-8.96-.41-.17-4.15,8.48,1.59.64ZM168.74,11.11l4.65,1.88-5.88,4.31-3.43-1.39,4.65-4.81Z"/>
    <path class="cls-4" d="M177.94,44.62l.37.24,9.21-14.69,5.1,3.38-17.02,25.68-6.57-4.35,7.72-15.95-.37-.24-9.33,14.88-5.14-3.4,17.02-25.67,6.61,4.38-7.6,15.76Z"/>
    <path class="cls-4" d="M192.97,65.37c-3.9,3.88-7.57,4.3-11.76.09-4.22-4.24-3.74-7.88.16-11.76l10.54-10.48c3.9-3.88,7.54-4.33,11.76-.09,4.19,4.21,3.71,7.85-.19,11.73l-2.28,2.26-4.81-4.84,1.03-1.02c2.21-2.2,2.5-2.98,1.78-3.7-.71-.72-1.52-.47-3.74,1.73l-8.05,8c-2.21,2.2-2.46,3.01-1.75,3.73s1.52.47,3.74-1.73c3.21-3.2,4.03-4.44,4.03-4.44l4.81,4.84s-.25.62-1.84,2.2l-3.43,3.47Z"/>
    <path class="cls-4" d="M222.15,67.85l-25.72,16.95-3.88-5.88,10.07-6.64-1.31-1.98-10.07,6.63-3.88-5.88,25.72-16.95,3.88,5.88-10.03,6.61,1.31,1.98,10.03-6.61,3.88,5.88Z"/>
    <path class="cls-4" d="M224.08,87.53l-2.25-5.31-5.47,2.32,1.99,4.7-5.27,2.23-1.99-4.7-6.04,2.56,2.25,5.31-5.79,2.46-5-11.79,28.36-12.03,5,11.79-5.79,2.46Z"/>
    <path class="cls-4" d="M209.62,103.82l1.48,6.34-6.13,1.43-3.48-14.91,25.19,1.44.26-.24-1.48-6.34,6.13-1.43,3.48,14.91-25.19-1.44-.26.24Z"/>
  </g>
  <circle class="cls-2" cx="123.5" cy="123" r="69.6"/>
  <path class="cls-4" d="M122.5,71.22c-22.97-.09-46.18,14.67-45.39,41.87.29,9.88,3.51,20.06,8.07,28.6,7.35,13.76,18.76,25.74,32.53,31.86,3.68,1.64,7.85,1.68,11.54.04,21.67-9.64,45.29-41.29,39.88-67.71-4.71-23.01-26.11-34.57-46.63-34.65ZM146.28,138.99c-10.77,7.45-24.21,9.65-15.32-8.68,3.45-8.11,11.83-17.98,20.82-12.92,7.43,5.83.28,17.43-5.5,21.6ZM96.07,117.39c8.99-5.06,17.37,4.8,20.82,12.92,8.89,18.33-4.55,16.13-15.32,8.68-5.78-4.17-12.93-15.76-5.5-21.6Z"/>
  <g id="_56" data-name="56">
    <path class="cls-4" d="M28.17,126.53c1.02,7.54-1.15,10.39-8.69,11.42,7.54-1.02,10.39,1.15,11.42,8.69-1.02-7.54,1.15-10.39,8.69-11.42-7.54,1.02-10.39-1.15-11.42-8.69Z"/>
  </g>
  <g id="_56-2" data-name="56">
    <path class="cls-4" d="M216.2,129.26c-1.42,7.47-4.39,9.49-11.86,8.07,7.47,1.42,9.49,4.39,8.07,11.86,1.42-7.47,4.39-9.49,11.86-8.07-7.47-1.42-9.49-4.39-8.07-11.86Z"/>
  </g>
  <g>
    <circle class="cls-1" cx="123" cy="123" r="81.93"/>
    <path class="cls-4" d="M32.89,178.57l-2.34-3.85,16.83-10.24,4.26,7-3.44,2.09-1.92-3.15-3.49,2.12,1.77,2.91-3.44,2.09-1.77-2.91-6.47,3.94Z"/>
    <path class="cls-4" d="M45.9,190.03c-2.29,1.78-2.92,2.53-2.92,2.53l-2.77-3.55s.19-.4,1.32-1.28l3.31-2.58c1.78-1.38,1.83-2.1,1.25-2.83l-.09-.11-6.91,5.38-2.77-3.55,15.54-12.11,3.41,4.37c2.27,2.91,2.4,4.63-.22,6.67-2.55,1.99-4.18,1.97-6.15-.56l-.22.17c1.87,2.4,1.81,3.87-1.17,6.19l-1.62,1.26ZM49.83,180.55c.47.6.97.56,1.79-.08.73-.57.96-1.1.49-1.7l-.64-.82-2.29,1.78.64.82Z"/>
    <path class="cls-4" d="M62.74,191.75l-6.68,6.78c-2.47,2.51-4.82,2.81-7.52.14-2.73-2.69-2.45-5.02.02-7.53l6.68-6.78c2.47-2.51,4.8-2.83,7.52-.14,2.71,2.67,2.45,5.02-.02,7.53ZM58.84,189.49c1.4-1.43,1.52-1.98,1.1-2.4-.44-.43-.98-.29-2.38,1.13l-5.1,5.18c-1.4,1.42-1.54,1.96-1.1,2.4.42.42.98.29,2.38-1.13l5.1-5.18Z"/>
    <path class="cls-4" d="M65.44,201.41l.22.17,6.46-9.03,3.12,2.36-11.87,15.73-4.02-3.04,5.55-9.88-.22-.17-6.54,9.14-3.15-2.37,11.87-15.73,4.05,3.05-5.47,9.77Z"/>
    <path class="cls-4" d="M71.86,215.73l-3.9-2.26,7.85-13.57-2.29-1.32,2.02-3.49,8.48,4.91-2.02,3.48-2.29-1.33-7.85,13.57Z"/>
    <path class="cls-4" d="M95.6,209.02l-3.46-1.28-1.32,3.56,3.06,1.13-1.27,3.43-3.06-1.13-1.45,3.93,3.46,1.28-1.4,3.78-7.68-2.84,6.84-18.48,7.68,2.84-1.4,3.78Z"/>
    <path class="cls-4" d="M101.44,217.83l.27.07,2.33-10.85,3.8.92-4.63,19.16-4.9-1.18,1.16-11.28-.27-.07-2.37,10.99-3.83-.93,4.63-19.16,4.93,1.19-1.13,11.14Z"/>
    <path class="cls-4" d="M117.69,223.41c-.43,4.03-1.42,5.62-3.83,5.37-1.68-.18-2.82-1.12-3.11-3.79l-.28-.03.17,3.19-4-.43,2.1-19.6,5.23.56c3.78.4,5.07,2.13,4.66,5.91l-.94,8.82ZM114.29,215.54c.24-2.27.01-2.77-.74-2.85l-.76-.08-.95,8.9c-.26,2.44.05,3.01.55,3.06.67.07.98-.46,1.23-2.73l.67-6.3Z"/>
    <path class="cls-4" d="M137.13,222.57c.35,4.04-.31,5.79-2.72,6-1.68.15-2.99-.56-3.78-3.12l-.28.02.78,3.1-4.01.35-1.72-19.63,5.24-.46c3.79-.33,5.38,1.11,5.71,4.9l.77,8.83ZM132.27,215.51c-.2-2.27-.52-2.72-1.28-2.66l-.76.07.78,8.92c.21,2.44.62,2.94,1.13,2.9.67-.06.88-.64.68-2.91l-.55-6.31Z"/>
    <path class="cls-4" d="M145.45,210.46l-3.61.75.78,3.72,3.2-.67.75,3.58-3.2.67.86,4.11,3.61-.75.82,3.94-8.02,1.67-4.02-19.29,8.02-1.67.82,3.94Z"/>
    <path class="cls-4" d="M155.13,203.14l3.65,19.55-5.26,1.74-8.73-17.87,4.28-1.41,4.66,11.47.27-.09-3.13-11.98,4.28-1.41Z"/>
    <path class="cls-4" d="M164.56,203.15l-3.35,1.54,1.59,3.45,2.96-1.37,1.53,3.32-2.96,1.37,1.76,3.81,3.35-1.55,1.69,3.66-7.44,3.43-8.26-17.89,7.44-3.43,1.69,3.66Z"/>
    <path class="cls-4" d="M180.5,211.99l-7.06,4.15-9.99-16.98,3.88-2.28,7.95,13.51,3.18-1.87,2.04,3.47Z"/>
    <path class="cls-4" d="M182.21,192.66l5.72,7.6c2.12,2.81,2.07,5.17-.97,7.46-3.06,2.3-5.32,1.68-7.44-1.13l-5.72-7.6c-2.12-2.81-2.09-5.16.97-7.46,3.03-2.29,5.32-1.68,7.44,1.13ZM179.41,196.18c-1.2-1.6-1.74-1.79-2.21-1.44-.49.37-.43.92.77,2.52l4.37,5.8c1.2,1.59,1.71,1.81,2.21,1.44.47-.36.43-.92-.77-2.52l-4.37-5.8Z"/>
    <path class="cls-4" d="M188.55,191.72l-.2.2,3.56,2.23,4.79,4.89-3.22,3.15-13.78-14.08,3.76-3.68c2.72-2.66,4.69-2.74,7.82.46l.39.4c2.93,3,3.39,4.75,1.72,6.39-1.37,1.34-2.56,1.45-4.84.05ZM187.34,189.47c1.08,1.11,1.5,1.01,1.91.62.44-.43.33-.91-.6-1.86l-.39-.4c-.98-1-1.44-1.07-1.98-.54l-.54.53,1.61,1.65Z"/>
    <path class="cls-4" d="M195.73,176.51l-2.32,2.87,2.95,2.39,2.05-2.54,2.84,2.3-2.05,2.54,3.26,2.64,2.32-2.87,3.13,2.53-5.15,6.37-15.32-12.39,5.15-6.37,3.13,2.53Z"/>
    <path class="cls-4" d="M212.13,172.93c2.45,1.55,3.37,1.89,3.37,1.89l-2.4,3.81s-.44-.04-1.65-.81l-3.55-2.24c-1.91-1.2-2.6-1-3.09-.22l-.08.12,7.41,4.67-2.4,3.81-16.67-10.51,2.96-4.69c1.97-3.12,3.54-3.82,6.35-2.05,2.74,1.73,3.27,3.26,1.56,5.97l.24.15c1.62-2.57,3.03-3.01,6.22-1l1.74,1.1ZM201.88,172.46c.41-.64.2-1.11-.68-1.66-.79-.5-1.37-.53-1.77.11l-.56.88,2.45,1.55.56-.88Z"/>
  </g>
</svg>