<svg width="90" height="90" viewBox="0 0 90 90" fill="none" xmlns="http://www.w3.org/2000/svg">
<circle cx="45" cy="45" r="45" fill="white"/>
<path d="M10.813 44.7936C10.7803 44.4671 10.6399 44.2134 10.3918 44.0326C10.1437 43.8517 9.80704 43.7613 9.38177 43.7613C9.0928 43.7613 8.8488 43.8018 8.6498 43.8828C8.45079 43.9611 8.29812 44.0703 8.19181 44.2107C8.08821 44.351 8.03642 44.5103 8.03642 44.6884C8.03096 44.8368 8.06232 44.9664 8.13047 45.077C8.20135 45.1877 8.29812 45.2835 8.4208 45.3645C8.54348 45.4427 8.68522 45.5115 8.84607 45.5709C9.00692 45.6276 9.17865 45.6762 9.36132 45.7167L10.1137 45.8948C10.479 45.9757 10.8143 46.0837 11.1196 46.2186C11.425 46.3536 11.6894 46.5196 11.913 46.7166C12.1365 46.9136 12.3096 47.1457 12.4323 47.4129C12.5577 47.6801 12.6218 47.9864 12.6245 48.3318C12.6218 48.8392 12.4909 49.2792 12.2319 49.6516C11.9757 50.0214 11.6049 50.3088 11.1196 50.5139C10.6371 50.7163 10.0551 50.8175 9.37359 50.8175C8.6975 50.8175 8.10866 50.715 7.60705 50.5098C7.10817 50.3047 6.71834 50.0011 6.43755 49.599C6.15948 49.1941 6.01363 48.6935 6 48.0971H7.71337C7.73245 48.375 7.81287 48.6071 7.95463 48.7934C8.09912 48.9769 8.29131 49.1159 8.53121 49.2103C8.77383 49.3021 9.0478 49.348 9.35313 49.348C9.65301 49.348 9.91335 49.3048 10.1342 49.2184C10.3577 49.1321 10.5308 49.012 10.6535 48.8581C10.7762 48.7043 10.8375 48.5275 10.8375 48.3278C10.8375 48.1416 10.7816 47.985 10.6699 47.8582C10.5608 47.7314 10.4 47.6234 10.1873 47.5343C9.97741 47.4453 9.7198 47.3643 9.41447 47.2914L8.50258 47.0647C7.79652 46.8947 7.23902 46.6289 6.83011 46.2672C6.42119 45.9056 6.21809 45.4184 6.22082 44.8058C6.21809 44.3038 6.35303 43.8652 6.62565 43.4901C6.90098 43.1149 7.27855 42.8221 7.75835 42.6116C8.23815 42.4011 8.78338 42.2958 9.39401 42.2958C10.0156 42.2958 10.5581 42.4011 11.0215 42.6116C11.4877 42.8221 11.8503 43.1149 12.1093 43.4901C12.3682 43.8652 12.5018 44.2998 12.51 44.7936H10.813ZM15.5247 47.1052V50.7001H13.7827V42.4092H15.4757V45.579H15.5493C15.691 45.212 15.92 44.9245 16.2363 44.7167C16.5525 44.5062 16.9491 44.4009 17.4262 44.4009C17.8624 44.4009 18.2427 44.4954 18.5671 44.6843C18.8942 44.8706 19.1478 45.1391 19.3277 45.4899C19.5103 45.8381 19.6003 46.2551 19.5976 46.7409V50.7001H17.8556V47.0485C17.8583 46.6653 17.7602 46.3671 17.5612 46.1539C17.3649 45.9407 17.0895 45.834 16.7351 45.834C16.498 45.834 16.288 45.884 16.1054 45.9838C15.9255 46.0837 15.7837 46.2294 15.6801 46.4211C15.5793 46.61 15.5275 46.838 15.5247 47.1052ZM20.9685 50.7001V44.4819H22.7105V50.7001H20.9685ZM21.8436 43.6804C21.5846 43.6804 21.3624 43.5954 21.177 43.4253C20.9944 43.2526 20.903 43.0461 20.903 42.8059C20.903 42.5684 20.9944 42.3647 21.177 42.1946C21.3624 42.0219 21.5846 41.9355 21.8436 41.9355C22.1025 41.9355 22.3233 42.0219 22.506 42.1946C22.6914 42.3647 22.7841 42.5684 22.7841 42.8059C22.7841 43.0461 22.6914 43.2526 22.506 43.4253C22.3233 43.5954 22.1025 43.6804 21.8436 43.6804ZM26.9683 50.8215C26.3223 50.8215 25.7661 50.692 25.3 50.4329C24.8365 50.1711 24.4794 49.8014 24.2286 49.3237C23.9778 48.8433 23.8524 48.2752 23.8524 47.6193C23.8524 46.9797 23.9778 46.4184 24.2286 45.9353C24.4794 45.4522 24.8324 45.0757 25.2877 44.8058C25.7457 44.5359 26.2827 44.4009 26.8988 44.4009C27.3132 44.4009 27.6989 44.4671 28.056 44.5993C28.4159 44.7289 28.7294 44.9245 28.9966 45.1863C29.2665 45.4481 29.4764 45.7774 29.6263 46.1741C29.7763 46.5681 29.8512 47.0297 29.8512 47.5586V48.0323H24.5475V46.9635H28.2114C28.2114 46.7152 28.1569 46.4953 28.0479 46.3037C27.9388 46.112 27.7875 45.9622 27.594 45.8543C27.4031 45.7437 27.181 45.6883 26.9274 45.6883C26.663 45.6883 26.4286 45.749 26.2241 45.8705C26.0224 45.9892 25.8643 46.1498 25.7497 46.3522C25.6353 46.5519 25.5766 46.7746 25.5739 47.0202V48.0363C25.5739 48.344 25.6312 48.6098 25.7457 48.8338C25.8629 49.0578 26.0278 49.2306 26.2405 49.352C26.4531 49.4735 26.7053 49.5342 26.997 49.5342C27.1905 49.5342 27.3677 49.5072 27.5286 49.4532C27.6894 49.3992 27.8271 49.3183 27.9416 49.2103C28.056 49.1024 28.1433 48.9701 28.2033 48.8136L29.8144 48.9189C29.7326 49.3021 29.565 49.6368 29.3114 49.9228C29.0606 50.2062 28.7362 50.4275 28.3382 50.5868C27.9429 50.7433 27.4863 50.8215 26.9683 50.8215ZM32.73 42.4092V50.7001H30.988V42.4092H32.73ZM36.4399 50.8013C35.9629 50.8013 35.5307 50.6799 35.1436 50.437C34.7593 50.1914 34.4539 49.8311 34.2276 49.3561C34.0041 48.8784 33.8923 48.2927 33.8923 47.5991C33.8923 46.8866 34.0082 46.2942 34.2399 45.8219C34.4716 45.3469 34.7797 44.992 35.1641 44.7572C35.5512 44.5197 35.975 44.4009 36.436 44.4009C36.7875 44.4009 37.0805 44.4603 37.315 44.5791C37.5523 44.6951 37.7429 44.8409 37.8875 45.0163C38.0347 45.189 38.1466 45.3591 38.2229 45.5264H38.276V42.4092H40.0138V50.7001H38.2963V49.7042H38.2229C38.1411 49.877 38.025 50.0483 37.8753 50.2184C37.7281 50.3857 37.536 50.5247 37.2987 50.6353C37.0641 50.746 36.7781 50.8013 36.4399 50.8013ZM36.992 49.4289C37.2726 49.4289 37.5099 49.3534 37.7035 49.2022C37.8999 49.0484 38.0496 48.8338 38.1532 48.5586C38.2596 48.2833 38.3126 47.9607 38.3126 47.591C38.3126 47.2213 38.2611 46.9001 38.1575 46.6275C38.0538 46.3549 37.9038 46.1444 37.7075 45.996C37.5114 45.8475 37.2726 45.7733 36.992 45.7733C36.7057 45.7733 36.4644 45.8502 36.2681 46.0041C36.072 46.1579 35.9232 46.3711 35.8224 46.6437C35.7216 46.9163 35.6711 47.2321 35.6711 47.591C35.6711 47.9527 35.7216 48.2725 35.8224 48.5505C35.926 48.8257 36.0747 49.0416 36.2681 49.1982C36.4644 49.352 36.7057 49.4289 36.992 49.4289Z" fill="#023047"/>
<path d="M64.146 44.7937C64.1133 44.4671 63.973 44.2134 63.7248 44.0326C63.4769 43.8518 63.1403 43.7614 62.7148 43.7614C62.426 43.7614 62.1818 43.8019 61.983 43.8828C61.7839 43.9611 61.6312 44.0704 61.5248 44.2107C61.4212 44.3511 61.3697 44.5103 61.3697 44.6884C61.3642 44.8369 61.3954 44.9664 61.4636 45.0771C61.5345 45.1877 61.6312 45.2835 61.7539 45.3645C61.8766 45.4428 62.0185 45.5116 62.1791 45.571C62.34 45.6276 62.5118 45.6762 62.6945 45.7167L63.4469 45.8948C63.8121 45.9758 64.1476 46.0838 64.4527 46.2187C64.7582 46.3536 65.0224 46.5196 65.246 46.7166C65.4697 46.9136 65.6427 47.1458 65.7654 47.4129C65.8909 47.6801 65.9548 47.9864 65.9576 48.3319C65.9548 48.8393 65.8239 49.2792 65.5651 49.6517C65.3088 50.0214 64.9382 50.3088 64.4527 50.5139C63.9703 50.7164 63.3882 50.8175 62.7066 50.8175C62.0306 50.8175 61.4418 50.715 60.9403 50.5099C60.4412 50.3048 60.0515 50.0012 59.7706 49.599C59.4927 49.1942 59.3466 48.6935 59.333 48.0971H61.0463C61.0654 48.3751 61.146 48.6072 61.2879 48.7934C61.4321 48.9769 61.6245 49.1159 61.8642 49.2104C62.1069 49.3022 62.3809 49.348 62.6863 49.348C62.986 49.348 63.2463 49.3049 63.4673 49.2185C63.6909 49.1321 63.8639 49.012 63.9866 48.8582C64.1094 48.7043 64.1706 48.5276 64.1706 48.3278C64.1706 48.1416 64.1148 47.9851 64.003 47.8583C63.8939 47.7314 63.733 47.6234 63.5206 47.5344C63.3106 47.4453 63.053 47.3644 62.7476 47.2915L61.8357 47.0648C61.1297 46.8947 60.5721 46.6289 60.1633 46.2673C59.7542 45.9056 59.5512 45.4185 59.5539 44.8058C59.5512 44.3039 59.686 43.8653 59.9588 43.4901C60.2342 43.115 60.6118 42.8222 61.0915 42.6117C61.5712 42.4011 62.1163 42.2959 62.7273 42.2959C63.3488 42.2959 63.8912 42.4011 64.3545 42.6117C64.8209 42.8222 65.1833 43.115 65.4424 43.4901C65.7015 43.8653 65.8348 44.2998 65.843 44.7937H64.146ZM71.1436 48.0526V44.482H72.8857V50.7002H71.2133V49.5707H71.1479C71.006 49.935 70.7703 50.2279 70.4403 50.4492C70.1133 50.6705 69.7139 50.7811 69.2421 50.7811C68.8224 50.7811 68.453 50.6867 68.1342 50.4977C67.8151 50.3088 67.5657 50.0403 67.3857 49.6921C67.2085 49.344 67.1185 48.927 67.1157 48.4412V44.482H68.8579V48.1335C68.8606 48.5006 68.96 48.7907 69.1563 49.0039C69.3527 49.2171 69.6157 49.3237 69.9454 49.3237C70.1554 49.3237 70.3518 49.2765 70.5345 49.182C70.7169 49.0849 70.8642 48.9419 70.976 48.7529C71.0906 48.564 71.1463 48.3305 71.1436 48.0526ZM74.2791 50.7002V44.482H75.9679V45.5669H76.0333C76.1479 45.181 76.34 44.8895 76.61 44.6925C76.8797 44.4928 77.1906 44.3929 77.5424 44.3929C77.6294 44.3929 77.7236 44.3983 77.8245 44.4091C77.9254 44.4199 78.0139 44.4347 78.0903 44.4536V45.9839C78.0085 45.9596 77.8954 45.938 77.7509 45.9191C77.6063 45.9002 77.4742 45.8908 77.3542 45.8908C77.0979 45.8908 76.8688 45.9461 76.6672 46.0568C76.4682 46.1647 76.31 46.3159 76.1927 46.5102C76.0785 46.7045 76.0212 46.9285 76.0212 47.1822V50.7002H74.2791ZM81.5609 50.8216C80.9148 50.8216 80.3588 50.6921 79.8924 50.433C79.4291 50.1712 79.0721 49.8014 78.8212 49.3237C78.5703 48.8433 78.4448 48.2752 78.4448 47.6194C78.4448 46.9798 78.5703 46.4184 78.8212 45.9353C79.0721 45.4522 79.4251 45.0757 79.8803 44.8058C80.3382 44.536 80.8754 44.401 81.4915 44.401C81.9057 44.401 82.2915 44.4671 82.6488 44.5994C83.0085 44.7289 83.3221 44.9246 83.5891 45.1864C83.8591 45.4482 84.0691 45.7774 84.2188 46.1742C84.3688 46.5682 84.4439 47.0297 84.4439 47.5587V48.0323H79.14V46.9636H82.8039C82.8039 46.7153 82.7494 46.4953 82.6406 46.3037C82.5315 46.1121 82.38 45.9623 82.1866 45.8543C81.9957 45.7437 81.7736 45.6884 81.52 45.6884C81.2557 45.6884 81.0212 45.7491 80.8166 45.8705C80.6148 45.9893 80.4569 46.1499 80.3424 46.3523C80.2279 46.552 80.1694 46.7747 80.1666 47.0203V48.0364C80.1666 48.344 80.2236 48.6099 80.3382 48.8339C80.4554 49.0579 80.6203 49.2306 80.833 49.3521C81.0457 49.4735 81.2979 49.5342 81.5897 49.5342C81.783 49.5342 81.9603 49.5073 82.1212 49.4533C82.2821 49.3993 82.4197 49.3183 82.5342 49.2104C82.6488 49.1024 82.7357 48.9702 82.7957 48.8136L84.4069 48.9189C84.3251 49.3022 84.1576 49.6368 83.9039 49.9229C83.6533 50.2063 83.3288 50.4276 82.9309 50.5868C82.5354 50.7433 82.0788 50.8216 81.5609 50.8216Z" fill="#023047"/>
<mask id="mask0_280_56" style="mask-type:luminance" maskUnits="userSpaceOnUse" x="41" y="37" width="18" height="17">
<path d="M56.4512 51.9V39H43.4209V51.9H56.4512Z" fill="white" stroke="white" stroke-width="4"/>
</mask>
<g mask="url(#mask0_280_56)">
<path d="M49.9365 38.9512L44.4844 41.1922V43.9165C44.4844 47.4422 46.6392 50.6173 49.9365 51.9496C53.2338 50.6173 55.3886 47.4422 55.3886 43.9165V41.1922L49.9365 38.9512Z" stroke="#FB8500" stroke-miterlimit="10" stroke-linecap="round" stroke-linejoin="round"/>
<path d="M47.7666 45.0125L49.3214 46.5517L52.106 43.7949" stroke="#FB8500" stroke-miterlimit="10" stroke-linecap="round" stroke-linejoin="round"/>
</g>
</svg>
